<svg xmlns="http://www.w3.org/2000/svg" viewBox="0 0 120 120" shape-rendering="crispEdges">
  <defs>
    <clipPath id="tri">
      <polygon points="120,0 120,120 0,0" />
    </clipPath>
    <linearGradient id="foldGrad" x1="1" y1="0" x2="0" y2="1">
      <stop offset="0" stop-color="#000000" stop-opacity="0.40"/>
      <stop offset="0.6" stop-color="#000000" stop-opacity="0.14"/>
      <stop offset="1" stop-color="#000000" stop-opacity="0.04"/>
    </linearGradient>
    <pattern id="hatch" width="12" height="12" patternUnits="userSpaceOnUse" patternTransform="rotate(35)">
      <line x1="0" y1="0" x2="0" y2="12" stroke="#000000" stroke-opacity="0.18" stroke-width="1"/>
    </pattern>
    <filter id="noise" x="-20%" y="-20%" width="140%" height="140%">
      <feTurbulence type="fractalNoise" baseFrequency="0.9" numOctaves="2" stitchTiles="stitch" result="t"/>
      <feColorMatrix type="saturate" values="0" result="g"/>
      <feComponentTransfer>
        <feFuncA type="table" tableValues="0 0.05 0.08 0"/>
      </feComponentTransfer>
    </filter>
  </defs>
  <g clip-path="url(#tri)">
    <rect width="120" height="120" fill="url(#foldGrad)"/>
    <path d="M120 0 L88 32 L92 40 L80 52 L84 60 L74 70 L78 78 L68 88 L72 95 L62 103 L64 109 L50 111 L0 60 L0 0 Z" fill="#ebdbb2" fill-opacity="0.06"/>
    <rect width="120" height="120" fill="url(#hatch)" opacity="0.6"/>
    <path d="M0.5 0.5 H119.5 M119.5 0.5 V119.5" stroke="#504945" stroke-width="1" stroke-opacity="0.7"/>
    <rect width="120" height="120" filter="url(#noise)"/>
  </g>
</svg>
